<svg xmlns="http://www.w3.org/2000/svg" viewBox="0 0 64 64">
  <rect width="64" height="64" rx="12" fill="#F8F5ED"/>
  <g transform="translate(9.41 50.93) scale(0.05626 -0.05626)">
    <path d="M273 691Q321 691 373.0 674.5Q425 658 432 658Q445 658 452.0 665.5Q459 673 464 692H494V475H466Q437 570 385.5 615.0Q334 660 273 660Q222 660 192.5 633.0Q163 606 163 560Q163 524 184.5 500.5Q206 477 266 447L413 374Q461 350 492.0 299.0Q523 248 523 192Q523 98 454.5 39.5Q386 -19 275 -19Q221 -19 167.5 -2.0Q114 15 104 15Q82 15 74 -19H45V228H74Q126 14 278 14Q336 14 370.0 45.0Q404 76 404 128Q404 167 381.0 192.0Q358 217 292 248L225 280Q136 323 95.0 372.5Q54 422 54 488Q54 583 112.5 637.0Q171 691 273 691Z" fill="#111613"/>
    <g transform="translate(548.0 0)"><path d="M125 156Q160 156 185.0 130.5Q210 105 210.0 70.0Q210 35 185.0 11.0Q160 -13 124 -13Q89 -13 65.0 11.5Q41 36 41 72Q41 106 66.0 131.0Q91 156 125 156Z" fill="#F3482D"/></g>
  </g>
</svg>
